<?xml version="1.0" standalone="no"?>
<!DOCTYPE svg PUBLIC "-//W3C//DTD SVG 20010904//EN"
 "http://www.w3.org/TR/2001/REC-SVG-20010904/DTD/svg10.dtd">
<svg version="1.0" xmlns="http://www.w3.org/2000/svg"
 width="500.000000pt" height="500.000000pt" viewBox="0 0 500.000000 500.000000"
 preserveAspectRatio="xMidYMid meet">

<g transform="translate(0.000000,500.000000) scale(0.100000,-0.100000)"
fill="#000000" stroke="none">
<path d="M2140 3034 l0 -205 43 3 42 3 3 95 c3 106 16 130 73 130 46 0 59 -30
59 -137 l0 -93 40 0 40 0 0 119 0 119 -36 32 c-33 29 -41 31 -88 27 -28 -2
-60 -7 -71 -11 -19 -7 -20 -3 -17 58 l4 66 -46 0 -46 0 0 -206z"/>
<path d="M2940 3035 l0 -205 40 0 40 0 0 205 0 205 -40 0 -40 0 0 -205z"/>
<path d="M1140 3218 c-47 -13 -93 -49 -121 -95 -17 -27 -23 -51 -23 -98 0 -99
57 -171 157 -196 61 -15 138 0 182 36 l30 24 -27 27 c-27 27 -28 27 -48 9 -29
-26 -112 -32 -145 -11 -35 23 -65 74 -65 112 0 37 36 93 70 112 34 17 115 10
140 -13 20 -18 21 -18 48 9 l27 27 -29 24 c-50 40 -127 53 -196 33z"/>
<path d="M2560 3025 l0 -195 45 0 45 0 0 70 0 69 88 3 87 3 3 33 3 32 -90 0
-91 0 0 55 0 55 100 0 100 0 0 35 0 35 -145 0 -145 0 0 -195z"/>
<path d="M1483 3124 c-34 -8 -45 -28 -32 -57 11 -24 13 -24 45 -11 18 8 44 14
56 14 31 0 68 -27 68 -49 0 -16 -10 -19 -75 -23 -90 -4 -119 -25 -119 -84 0
-54 38 -84 108 -84 35 0 58 5 66 15 7 8 16 15 21 15 5 0 9 -7 9 -15 0 -11 11
-15 41 -15 l41 0 -4 115 c-3 114 -3 115 -35 147 -30 29 -39 33 -100 34 -38 1
-78 0 -90 -2z m135 -191 c-6 -52 -98 -72 -111 -24 -9 35 13 49 76 50 36 1 38
-1 35 -26z"/>
<path d="M1854 3121 c-38 -16 -66 -62 -60 -96 8 -41 34 -60 103 -74 76 -15 91
-24 74 -45 -16 -19 -74 -21 -121 -4 -29 9 -35 9 -47 -7 -7 -11 -13 -24 -13
-31 0 -21 68 -36 141 -32 58 3 73 8 95 29 32 32 35 82 7 110 -11 11 -48 27
-84 35 -74 17 -87 27 -69 49 10 12 26 16 59 13 25 -3 53 -8 62 -12 19 -9 46
41 30 57 -13 13 -150 19 -177 8z"/>
<path d="M3191 3112 c-99 -50 -109 -187 -19 -253 35 -24 51 -29 101 -29 104 0
161 53 162 150 0 65 -25 108 -79 134 -45 21 -122 20 -165 -2z m139 -72 c24
-24 27 -86 4 -118 -12 -17 -25 -22 -59 -22 -53 0 -75 24 -75 82 0 49 28 78 75
78 22 0 43 -8 55 -20z"/>
<path d="M3480 3125 c0 -3 13 -40 29 -83 16 -42 40 -106 53 -142 24 -64 24
-65 65 -68 45 -3 37 -14 85 115 13 35 25 63 28 63 3 0 19 -39 35 -88 l31 -87
43 0 44 0 47 130 c26 72 50 138 55 148 6 14 1 17 -32 17 l-39 0 -34 -100 c-19
-55 -38 -96 -41 -92 -4 4 -22 49 -39 100 l-33 92 -36 0 -36 0 -34 -95 c-18
-52 -36 -95 -40 -95 -4 0 -22 43 -40 95 l-33 95 -39 0 c-22 0 -39 -2 -39 -5z"/>
<path d="M500 2545 l0 -45 2000 0 2000 0 0 45 0 45 -2000 0 -2000 0 0 -45z"/>
<path d="M979 2301 c-12 -40 -13 -41 -58 -41 l-45 0 34 -35 c31 -32 33 -37 23
-70 -13 -40 -9 -42 33 -16 31 19 32 19 64 0 39 -24 46 -20 31 23 -11 32 -10
34 26 63 l37 30 -49 5 c-44 5 -49 8 -59 37 -17 48 -23 49 -37 4z"/>
<path d="M1355 2303 c-17 -42 -18 -43 -64 -43 l-46 -1 37 -30 c34 -28 36 -31
26 -65 -12 -46 -6 -51 33 -26 l32 20 40 -25 c43 -27 41 -31 21 38 -4 15 3 30
27 55 l33 34 -45 0 c-44 0 -45 1 -61 43 l-16 42 -17 -42z"/>
<path d="M1727 2300 c-15 -38 -18 -40 -58 -40 l-43 0 33 -34 c24 -25 31 -40
27 -55 -3 -12 -9 -30 -12 -42 -6 -20 -4 -20 32 5 l38 26 34 -21 c19 -11 37
-18 39 -15 2 2 0 20 -5 40 -10 35 -9 37 26 64 l36 27 -49 5 c-45 5 -49 8 -57
37 -12 47 -23 47 -41 3z"/>
<path d="M3227 2300 c-15 -38 -18 -40 -58 -40 l-43 0 33 -34 c34 -35 35 -47
15 -101 -6 -14 1 -12 33 8 l40 25 33 -19 c39 -24 46 -20 31 23 -11 32 -10 34
26 65 l37 32 -48 3 c-45 3 -50 6 -60 35 -16 47 -21 47 -39 3z"/>
<path d="M3605 2303 c-17 -42 -18 -43 -63 -43 l-47 0 37 -30 c34 -28 36 -33
27 -63 -15 -53 -11 -58 26 -32 l36 24 36 -22 36 -21 -6 39 c-6 35 -3 43 25 72
l32 33 -47 0 c-31 0 -47 4 -47 13 -1 6 -7 26 -14 42 l-13 30 -18 -42z"/>
<path d="M3978 2300 c-16 -38 -19 -40 -59 -40 l-43 0 33 -34 c24 -25 31 -40
27 -55 -20 -69 -22 -65 22 -37 l39 24 33 -19 c18 -11 34 -19 36 -17 1 2 -1 20
-6 41 -7 35 -6 40 21 59 39 29 37 38 -10 38 -36 0 -40 3 -55 40 -9 22 -17 40
-18 40 -2 0 -11 -18 -20 -40z"/>
<path d="M2142 2218 c-8 -8 -12 -66 -12 -196 0 -174 1 -184 20 -189 10 -3 22
-13 25 -24 3 -10 14 -21 24 -24 11 -3 21 -14 24 -25 3 -13 18 -20 51 -25 60
-9 567 -2 584 9 9 5 12 57 12 193 0 172 -1 185 -19 190 -10 2 -24 16 -30 29
-6 13 -17 24 -26 24 -8 0 -15 7 -15 15 0 8 -9 19 -19 25 -29 15 -603 14 -619
-2z m616 -190 l-3 -173 -299 -3 c-233 -2 -301 1 -308 10 -9 15 -11 299 -2 322
5 14 42 16 310 16 l304 0 -2 -172z m47 -49 l0 -174 -304 0 c-235 0 -305 3
-308 13 -4 9 57 12 279 12 208 0 287 3 296 12 8 8 12 60 12 166 0 118 3 153
13 150 9 -4 12 -48 12 -179z m45 -44 l0 -175 -305 0 c-197 0 -305 4 -305 10 0
6 100 10 279 10 241 0 282 2 295 16 13 13 16 42 16 165 0 93 4 149 10 149 6 0
10 -65 10 -175z"/>
<path d="M2290 2160 c0 -11 5 -20 10 -20 6 0 10 9 10 20 0 11 -4 20 -10 20 -5
0 -10 -9 -10 -20z"/>
<path d="M2350 2160 c0 -11 5 -20 10 -20 6 0 10 9 10 20 0 11 -4 20 -10 20 -5
0 -10 -9 -10 -20z"/>
<path d="M2410 2164 c0 -12 -7 -27 -16 -35 -25 -21 -44 -66 -44 -106 0 -39 31
-103 50 -103 5 0 10 -9 10 -20 0 -11 5 -20 10 -20 6 0 10 5 10 10 0 6 11 10
25 10 14 0 25 -4 25 -10 0 -5 5 -10 10 -10 6 0 10 8 10 18 0 11 9 27 20 37 44
40 44 150 -1 191 -10 9 -19 25 -19 36 0 22 -16 24 -24 3 -7 -20 -36 -19 -52 3
-12 16 -13 16 -14 -4z m67 -30 c33 -9 67 -85 58 -130 -8 -44 -46 -84 -79 -84
-85 0 -117 153 -42 205 23 16 31 18 63 9z"/>
<path d="M2540 2161 c0 -12 5 -21 10 -21 6 0 10 6 10 14 0 8 -4 18 -10 21 -5
3 -10 -3 -10 -14z"/>
<path d="M2600 2160 c0 -19 3 -21 12 -12 9 9 9 15 0 24 -9 9 -12 7 -12 -12z"/>
<path d="M2175 2160 c-4 -6 10 -10 34 -10 23 0 41 5 41 10 0 6 -15 10 -34 10
-19 0 -38 -4 -41 -10z"/>
<path d="M2655 2160 c-4 -6 10 -10 34 -10 23 0 41 5 41 10 0 6 -15 10 -34 10
-19 0 -38 -4 -41 -10z"/>
<path d="M2212 2048 c-18 -18 -14 -56 7 -68 21 -10 51 -4 63 14 27 40 -36 88
-70 54z m53 -33 c0 -13 -8 -21 -22 -23 -19 -3 -23 1 -23 23 0 22 4 26 23 23
14 -2 22 -10 22 -23z"/>
<path d="M2638 2049 c-36 -20 -13 -79 31 -79 14 0 41 29 41 45 0 17 -27 45
-43 45 -7 0 -20 -5 -29 -11z m47 -34 c0 -30 -39 -27 -43 3 -3 20 0 23 20 20
15 -2 23 -10 23 -23z"/>
<path d="M2290 1900 c0 -11 5 -20 10 -20 6 0 10 9 10 20 0 11 -4 20 -10 20 -5
0 -10 -9 -10 -20z"/>
<path d="M2350 1900 c0 -11 5 -20 10 -20 6 0 10 9 10 20 0 11 -4 20 -10 20 -5
0 -10 -9 -10 -20z"/>
<path d="M2540 1901 c0 -12 5 -21 10 -21 6 0 10 6 10 14 0 8 -4 18 -10 21 -5
3 -10 -3 -10 -14z"/>
<path d="M2600 1900 c0 -19 3 -21 12 -12 9 9 9 15 0 24 -9 9 -12 7 -12 -12z"/>
<path d="M2180 1900 c0 -5 16 -10 35 -10 19 0 35 5 35 10 0 6 -16 10 -35 10
-19 0 -35 -4 -35 -10z"/>
<path d="M2655 1900 c-4 -6 10 -10 34 -10 23 0 41 5 41 10 0 6 -15 10 -34 10
-19 0 -38 -4 -41 -10z"/>
</g>
</svg>
